<?xml version="1.0" encoding="utf-8"?>
<!-- Generator: Adobe Illustrator 21.0.1, SVG Export Plug-In . SVG Version: 6.00 Build 0)  -->
<svg version="1.1" id="Layer_1" xmlns="http://www.w3.org/2000/svg" xmlns:xlink="http://www.w3.org/1999/xlink" x="0px" y="0px"
	 viewBox="0 0 612 792" style="enable-background:new 0 0 612 792;" xml:space="preserve">
<style type="text/css">
	.st0{fill:#FDFDFE;}
	.st1{fill:#7A4FFC;}
	.st2{fill:#272324;}
	.st3{fill:#242021;}
	.st4{fill:#2D292A;}
	.st5{fill:#232323;}
	.st6{fill:#0F0F0F;}
	.st7{fill:#8058FC;}
	.st8{fill:#171717;}
	.st9{fill:#794EFC;}
	.st10{fill:#070304;}
	.st11{fill:#F6F5F8;}
	.st12{fill:#F4F3F6;}
	.st13{fill:#F7F7F7;}
	.st14{fill:#F9F8FE;}
</style>
<g>
	<g>
		<path class="st0" d="M307,550c-82,0-163.9,0-245.9,0.1c-3.2,0-4.2-0.3-4.2-4c0.1-99.8,0.1-199.6,0-299.4c0-3.2,0.9-3.8,3.9-3.8
			c164.1,0.1,328.2,0.1,492.3,0c3.7,0,3.9,1.1,3.9,4.2c-0.1,99.6-0.1,199.3,0,298.9c0,3.5-0.8,4.1-4.1,4C471,550,389,550,307,550z
			 M401.1,343.2c12.6,0,25.3,0,37.9,0c2.8,3.4,3.8,7.7,5.9,11.5c1.7,3.2,3.4,6.3-1.1,9c6.1,0,11.6,0,17.1,0c-4.2-2.1-5.6-6-7.3-9.7
			c-8.1-17.5-16.2-34.9-24.1-52.5c-1.5-3.3-4.7-6.6-0.1-10.1c-6.2,0-11.8,0-17.5,0c4.4,2.3,2,5.1,0.9,7.6
			c-4.7,10.2-9.2,20.6-14.3,30.6c-5.8,11.5-9.1,24.3-17.8,34c5,0,10.2,0,15.9,0c-1.6-1.9-4.5-2.4-2.9-5.4
			C396.2,353.4,397.8,347.9,401.1,343.2z M256.9,343.2c2.7,3.5,3.8,7.7,5.8,11.5c1.7,3.2,3.3,6.3-1,9c6.1,0,11.5,0,17,0
			c-4.4-2-5.7-6.1-7.4-9.8c-8.4-18.1-16.7-36.2-25.1-54.3c-1.3-2.9-3-5.6,2.1-8.3c-7,0-12.6,0-18.6,0c2.9,2.7,2.1,5.3,0.6,8.1
			c-3.3,6.5-6.1,13.3-9.3,19.8c-7.4,15-12.9,30.9-21.8,44.4c4.2,0,9.3,0,15.1,0c-1.9-1.9-4.6-2.5-3-5.4c2.7-4.9,4.2-10.5,7.6-15.1
			C231.7,343.2,244.3,343.2,256.9,343.2z M297.1,304c2.5-0.3,2.3,2,2.9,3.3c8.7,17.2,17.3,34.4,26,51.6c0.6,1.2,0.7,3.2,2.7,3.1
			c1.6-0.1,1.7-1.8,2.3-2.9c8.7-17.2,17.4-34.4,26.1-51.5c0.6-1.2,0.5-3,2.7-3.6c0,16.9,0,33.5,0,50.1c0,3.5,0.8,7.4-4.8,9.7
			c6.4,0,11.2,0,15.9,0c-3.6-2.2-2.9-5.4-2.9-8.5c0-17,0-34,0-51c0-4.5-1.5-9.5,3.6-12.9c-6.9,0-13.1,0-20.9,0
			c5.2,2.6,4.1,5.1,2.7,8c-7.8,15.2-15.4,30.5-23.1,45.8c-0.3,0.6-0.3,1.7-1.6,1.4c-7.9-15.6-15.8-31.3-23.8-47
			c-1.5-2.9-3.3-5.5,2-8.3c-7.7,0-13.8,0-19.9,0c3.3,2.4,3.1,5.6,3.1,9c-0.1,17.3,0,34.6,0,52c0,4.1,1,8.4-3.3,11.5
			c5.1,0,9.6,0,15.8,0c-3.1-1.6-4.5-3-5.2-4.8C297.5,340.6,297.8,322.3,297.1,304z M435,393.6c1.1,1.7,1.8,2.8,2.7,3.8
			c1.1,1.4,2.4,3.4,4.4,2.4c2.1-1.1,1-3.2,0.4-4.8c-2.3-5.5-4.8-11-8.1-16c-1-1.5-2.2-4.2-4.4-2.9c-2.3,1.2-1.4,3.8-0.5,5.8
			c0.4,0.9,0.8,1.9,1.5,2.6c1.5,1.6,1,2.8-0.2,4.3c-31.7,41-73.7,56.8-124.2,49.5c-29.6-4.2-53.4-20.3-74.2-41.3
			c-4.8-4.8-9.7-9.3-4.2-16.7c1.2-1.5,0.9-3.8-1.2-4.7c-1.9-0.8-3.1,0.9-3.8,2.3c-2.7,5.1-5.4,10.3-7.9,15.6
			c-0.9,1.9-2.2,4.3,0.5,5.8c2.7,1.5,3.4-1.4,4.2-2.9c1.7-3.1,2.7-2.2,4.4,0c5.4,7.2,11.7,13.6,18.3,19.8
			c43.5,40.7,110,48.3,159.1,10.2C414,416.8,425.1,406.2,435,393.6z M202.6,320c-2.1,1.8-3.6,3.1-6.4,3.1c-9.5-0.2-19-0.2-28.5,0
			c-2.5,0-3.1-0.8-3.1-3.1c0.1-6,0.3-12,0-18c-0.2-3.4,1.1-4,4.2-4c12.3,0.2,24.7,0,37,0.1c4.4,0,9.1-1.3,12.6,3.5
			c0-5.1,0-9.4,0-13.8c-2,4.3-5.7,3.2-8.9,3.2c-17.8,0-35.7,0-53.5,0c-1,0-2.3-0.8-3.2,1.1c3.6,1.5,3.3,4.5,3.3,7.7
			c-0.1,18.2-0.1,36.3,0,54.5c0,3.4,0.5,6.9-4.4,9.5c6.3,0,11.1,0,16,0c-1.8-1.9-3.2-3.6-3.2-6.4c0.2-8,0.2-16,0-24
			c-0.1-2.9,0.8-3.7,3.6-3.6c8.2,0.2,16.3,0.1,24.5,0c3.6,0,7.1-0.4,9.8,4.4C202.6,328.7,202.6,324.3,202.6,320z M431.4,492.1
			c0,3.2-0.1,6.3,0,9.5c0,1.3-0.7,3.5,1.7,3.3c2.3-0.1,1.4-2.2,1.6-3.5c0.1-0.7,0.1-1.4,0-2c-1-5.2,1.1-6.5,6.3-6.5
			c4.8,0.1,6.8,1.2,5.9,6c-0.1,0.8-0.2,1.7,0,2.5c0.3,1.3-1,3.4,1.5,3.5c2.5,0.1,1.7-2,1.7-3.3c0.1-6.2,0.1-12.3,0-18.5
			c0-1.3,0.9-3.4-1.7-3.2c-2.5,0.2-1.4,2.2-1.5,3.5c-0.3,6.8-0.2,6.6-6.8,6.9c-4.2,0.2-6.3-0.7-5.4-5.3c0.2-1,0-2,0-3
			c0-1.1-0.1-2-1.5-2.1c-1.6-0.1-1.9,0.9-1.9,2.2C431.4,485.5,431.4,488.8,431.4,492.1z M386.3,492.2c0-7.5-4.4-12.7-11-12.8
			c-6.8-0.1-11.6,5.2-11.7,12.8c-0.1,7.7,4.2,12.8,10.7,12.9C381.6,505.3,386.2,500.3,386.3,492.2z M326.9,492.6
			c0,7.7,4.3,12.6,11.1,12.5c7.1,0,11.7-5.4,11.6-13.3c-0.1-7.5-4.8-12.5-11.4-12.4C331.3,479.6,326.8,484.8,326.9,492.6z
			 M214.3,492.2c-0.1-7.3-4.7-12.6-11.2-12.7c-6.8-0.1-11.8,5.7-11.6,13.4c0.2,7.1,4.7,12.3,10.9,12.4
			C209.4,505.4,214.4,499.8,214.3,492.2z M272.8,492.1c0-7.2-4.8-12.5-11.3-12.7c-6.5-0.1-11.5,5.4-11.6,13
			c-0.1,7.6,4.6,12.9,11.5,12.8C268,505.2,272.9,499.6,272.8,492.1z M179.5,492.5c0-3,0.1-6,0-9c0-1.3,0.7-3.4-1.6-3.4
			c-2.4,0-1.8,2.1-1.6,3.4c0.4,4.5,0,7.4-6,7.1c-4.9-0.2-7.2-1.2-6.2-6.3c0.1-0.6,0-1.3,0-2c0-1-0.1-2.1-1.5-2.2
			c-1.4-0.1-1.6,0.9-1.6,2c0,7,0,14,0,20.9c0,1,0.2,2.1,1.6,1.9c1-0.1,1.4-0.9,1.4-1.7c0-2,0.2-4,0-6c-0.4-3.4,1.1-4.1,4.2-4.1
			c7.8,0.1,7.8-0.1,7.9,7.8c0,0.5,0,1,0,1.5c0,1.2,0,2.5,1.6,2.5c1.7,0.1,1.7-1.3,1.7-2.5C179.5,499.1,179.4,495.8,179.5,492.5z
			 M307.9,491.5c2.8-2.2,4.6-4.6,3.1-7.9c-1.4-3.2-4.4-3.7-7.5-3.8c-1.3,0-2.7,0.2-4,0.1c-2.3-0.2-2.7,1-2.7,3c0.1,6,0.3,12-0.1,18
			c-0.2,3.6,1.1,4.7,4.4,4.4c1.3-0.1,2.7,0,4-0.3c3.3-0.6,6.1-1.8,7-5.4C313,495.9,311.6,493.3,307.9,491.5z M132.4,492.3
			c0,2.8-0.1,5.7,0,8.5c0,1.7-0.7,4.2,2.2,4c2.5-0.2,1.5-2.6,1.4-4c-0.2-3.7,0.1-6,5-6c4.7,0,7.9-4.2,7.4-8.3
			c-0.5-4.5-4.4-6.7-10.5-6.8c-5.7-0.1-6,3-5.6,7.2C132.6,488.6,132.4,490.4,132.4,492.3z M470.6,505.2c5.7,0.3,9.2-1.6,10.1-6.1
			c0.9-4.3-2.1-6.6-5.7-8.2c-1.1-0.5-2.1-0.9-3.1-1.5c-1.7-1-3-2.2-2.3-4.4c0.6-2,2.2-2.9,4.2-3c1.1,0,2.3,0.1,3.4,0.5
			c1.1,0.4,2,0.5,2.2-0.9c0.2-1.3-0.6-1.6-1.7-1.9c-4.7-1.4-9.5,0.4-11,4.3c-1.5,3.8,0.3,6.6,5.5,9c2.7,1.2,6.3,2.3,5.2,6.1
			c-1.2,4.2-4.9,3.8-8.3,2.9c-1-0.2-2.2-1.6-2.9,0.2c-0.8,2.1,1.2,2,2.2,2.4C469.4,505.2,470.6,505.2,470.6,505.2z M406.6,493.9
			c0,2.5-0.1,5,0,7.5c0.1,1.3-0.9,3.4,1.4,3.5c2.4,0.1,1.7-2,1.7-3.4c0.1-4.5,0.3-9,0-13.4c-0.3-3.9,0.3-6.5,5.1-5.4
			c1.2,0.3,2.5,0.2,2.5-1.5c0-1.9-1.6-1.3-2.6-1.3c-4.5-0.1-9-0.1-13.5,0c-0.9,0-2.2-0.5-2.3,1.1c-0.1,1.7,1,2,2.3,1.7
			c5.6-1.1,5.8,2.2,5.4,6.2C406.5,490.6,406.6,492.3,406.6,493.9z M229.9,493.7c0,2.7-0.1,5.3,0,7.9c0,1.2-0.6,3.1,1.3,3.2
			c2.4,0.1,1.6-2.1,1.6-3.4c0.1-4.3,0.1-8.6,0-12.9c-0.1-3.5-0.4-6.9,4.8-6c1.1,0.2,2.1-0.2,1.9-1.6c-0.2-1.5-1.5-1-2.3-1
			c-4.1-0.1-8.3-0.1-12.4,0c-1,0-2.7-0.5-2.5,1.4c0.1,1.2,1.5,1.3,2.4,1.1c4.9-0.9,5.5,1.9,5.1,5.7
			C229.7,490,229.9,491.9,229.9,493.7z"/>
		<path class="st1" d="M435,393.6c-10,12.5-21.1,23.2-33.3,32.7c-49.1,38.2-115.6,30.5-159.1-10.2c-6.6-6.2-12.9-12.6-18.3-19.8
			c-1.7-2.2-2.7-3.1-4.4,0c-0.8,1.5-1.5,4.4-4.2,2.9c-2.6-1.5-1.4-3.9-0.5-5.8c2.5-5.3,5.2-10.4,7.9-15.6c0.8-1.4,2-3.1,3.8-2.3
			c2.1,0.9,2.3,3.1,1.2,4.7c-5.5,7.4-0.6,11.9,4.2,16.7c20.7,21,44.6,37.1,74.2,41.3c50.5,7.2,92.6-8.6,124.2-49.5
			c1.2-1.5,1.6-2.7,0.2-4.3c-0.7-0.7-1.1-1.7-1.5-2.6c-0.9-2-1.8-4.6,0.5-5.8c2.3-1.2,3.4,1.4,4.4,2.9c3.3,5,5.8,10.5,8.1,16
			c0.7,1.6,1.8,3.8-0.4,4.8c-2,1-3.3-0.9-4.4-2.4C436.9,396.4,436.2,395.3,435,393.6z"/>
		<path class="st2" d="M297.3,358.9c0.7,1.8,2.1,3.2,5.2,4.8c-6.2,0-10.7,0-15.8,0c4.3-3,3.3-7.4,3.3-11.5c0-17.3,0-34.6,0-52
			c0-3.3,0.3-6.6-3.1-9c6.1,0,12.2,0,19.9,0c-5.4,2.7-3.5,5.4-2,8.3c8,15.7,15.9,31.4,23.8,47c1.3,0.4,1.3-0.8,1.6-1.4
			c7.7-15.3,15.4-30.6,23.1-45.8c1.5-2.9,2.5-5.5-2.7-8c7.9,0,14,0,20.9,0c-5.2,3.4-3.6,8.4-3.6,12.9c-0.1,17,0,34,0,51
			c0,3.1-0.7,6.4,2.9,8.5c-4.8,0-9.5,0-15.9,0c5.6-2.4,4.8-6.2,4.8-9.7c0-16.6,0-33.2,0-50.1c-2.2,0.7-2.1,2.5-2.7,3.6
			c-8.8,17.1-17.4,34.3-26.1,51.5c-0.6,1.1-0.7,2.8-2.3,2.9c-2,0.1-2.1-1.9-2.7-3.1c-8.7-17.2-17.3-34.4-26-51.6
			c-0.6-1.3-0.4-3.6-2.9-3.3c-1.3,0.7-1.1,1.9-1.1,3.1c0,16.1,0,32.3,0,48.4C296,356.8,295.7,358.2,297.3,358.9z"/>
		<path class="st3" d="M219.1,343.2c-3.4,4.6-4.9,10.1-7.6,15.1c-1.6,2.9,1.2,3.5,3,5.4c-5.8,0-11,0-15.1,0
			c8.8-13.6,14.4-29.5,21.8-44.4c3.2-6.6,6.1-13.3,9.3-19.8c1.4-2.9,2.3-5.5-0.6-8.1c6,0,11.5,0,18.6,0c-5.1,2.7-3.4,5.5-2.1,8.3
			c8.4,18.1,16.7,36.2,25.1,54.3c1.7,3.7,3,7.8,7.4,9.8c-5.5,0-11,0-17,0c4.3-2.7,2.7-5.8,1-9c-2.1-3.8-3.2-8-5.8-11.5
			c-0.6-1.3-1.8-1.2-3-1.2c-10.6,0-21.3,0-31.9,0C220.9,342,219.7,341.9,219.1,343.2z M254.6,336.8c-5.6-12.3-10.9-24-16.6-36.5
			c-5.7,12.5-11.1,24.3-16.6,36.5C232.7,336.8,243.2,336.8,254.6,336.8z"/>
		<path class="st3" d="M401.1,343.2c-3.3,4.7-4.9,10.2-7.6,15.1c-1.6,3,1.3,3.5,2.9,5.4c-5.7,0-10.9,0-15.9,0
			c8.7-9.7,12-22.6,17.8-34c5.1-10.1,9.6-20.4,14.3-30.6c1.2-2.5,3.5-5.3-0.9-7.6c5.7,0,11.3,0,17.5,0c-4.6,3.4-1.4,6.8,0.1,10.1
			c8,17.5,16.1,35,24.1,52.5c1.7,3.7,3.2,7.6,7.3,9.7c-5.5,0-11,0-17.1,0c4.4-2.7,2.8-5.9,1.1-9c-2.1-3.8-3.1-8.1-5.9-11.5
			c-0.5-1.1-1.5-1.2-2.5-1.2c-11,0-21.9,0-32.9,0C402.5,342,401.6,342.2,401.1,343.2z M436.7,336.7c-5.6-12.3-11-24.1-16.7-36.5
			c-5.7,12.6-11,24.3-16.5,36.5C414.7,336.7,425.3,336.7,436.7,336.7z"/>
		<path class="st4" d="M202.6,320c0,4.3,0,8.7,0,14.4c-2.7-4.8-6.3-4.4-9.8-4.4c-8.2,0.1-16.3,0.1-24.5,0c-2.8-0.1-3.7,0.7-3.6,3.6
			c0.2,8,0.1,16,0,24c-0.1,2.8,1.4,4.5,3.2,6.4c-4.8,0-9.7,0-16,0c4.9-2.5,4.4-6,4.4-9.5c-0.1-18.2-0.1-36.3,0-54.5
			c0-3.2,0.2-6.3-3.3-7.7c0.9-1.9,2.2-1.1,3.2-1.1c17.8,0,35.7,0,53.5,0c3.2,0,6.9,1,8.9-3.2c0,4.3,0,8.7,0,13.8
			c-3.5-4.8-8.2-3.5-12.6-3.5c-12.3-0.1-24.7,0.1-37-0.1c-3.1,0-4.4,0.6-4.2,4c0.3,6,0.2,12,0,18c-0.1,2.4,0.6,3.2,3.1,3.1
			c9.5-0.1,19-0.2,28.5,0C198.9,323.1,200.4,321.8,202.6,320z"/>
		<path class="st5" d="M431.4,492.1c0-3.3,0-6.7,0-10c0-1.3,0.2-2.4,1.9-2.2c1.3,0.1,1.5,1.1,1.5,2.1c0,1,0.2,2,0,3
			c-0.9,4.6,1.2,5.5,5.4,5.3c6.6-0.4,6.5-0.1,6.8-6.9c0-1.2-1.1-3.3,1.5-3.5c2.6-0.2,1.7,2,1.7,3.2c0.1,6.2,0.1,12.3,0,18.5
			c0,1.3,0.8,3.4-1.7,3.3c-2.5-0.1-1.2-2.2-1.5-3.5c-0.2-0.8-0.2-1.7,0-2.5c0.9-4.9-1.1-6-5.9-6c-5.2-0.1-7.2,1.3-6.3,6.5
			c0.1,0.6,0.1,1.3,0,2c-0.2,1.3,0.7,3.4-1.6,3.5c-2.4,0.1-1.7-2-1.7-3.3C431.3,498.5,431.4,495.3,431.4,492.1z"/>
		<path class="st6" d="M386.3,492.2c0,8-4.7,13.1-11.9,12.9c-6.6-0.1-10.8-5.3-10.7-12.9c0.1-7.6,4.9-12.9,11.7-12.8
			C381.8,479.5,386.3,484.7,386.3,492.2z M366.9,492.6c0,5.9,3.5,10.2,8,10.2c4.7,0,8.1-4.5,8.1-10.7c-0.1-6-3.3-10.1-8-10.1
			C370,482,366.8,486.2,366.9,492.6z"/>
		<path class="st6" d="M326.9,492.6c0-7.8,4.4-13.1,11.2-13.2c6.7-0.1,11.3,4.9,11.4,12.4c0.2,7.9-4.5,13.3-11.6,13.3
			C331.2,505.2,326.9,500.3,326.9,492.6z M330,492.2c-0.1,6.9,4.4,11.7,9.6,10.4c4.8-1.2,7.3-6.6,6.2-13.1c-0.8-4.8-4.2-7.8-8.4-7.5
			C333.1,482.4,330.1,486.5,330,492.2z"/>
		<path class="st1" d="M214.3,492.2c0.1,7.7-4.9,13.2-11.9,13.1c-6.2-0.1-10.8-5.3-10.9-12.4c-0.2-7.6,4.9-13.4,11.6-13.4
			C209.6,479.6,214.3,484.8,214.3,492.2z M211,492.3c0-7.1-5-11.9-10.4-10c-4.5,1.5-6.9,7.7-5.5,13.6c1.1,4.3,4.8,7.3,8.6,6.9
			C208.1,502.3,211,498,211,492.3z"/>
		<path class="st1" d="M272.8,492.1c0,7.5-4.8,13.1-11.4,13.1c-6.8,0-11.5-5.2-11.5-12.8c0.1-7.5,5-13.1,11.6-13
			C268.1,479.6,272.8,484.9,272.8,492.1z M269.4,492.6c0.1-7.2-4.5-12-10.1-10.3c-4.2,1.3-7,7.1-6,12.5c0.9,5.1,4.5,8.5,8.6,8.1
			C266.5,502.4,269.3,498.5,269.4,492.6z"/>
		<path class="st7" d="M179.5,492.5c0,3.3,0,6.6,0,10c0,1.1,0.1,2.5-1.7,2.5c-1.7-0.1-1.6-1.4-1.6-2.5c0-0.5,0-1,0-1.5
			c-0.2-7.9-0.2-7.8-7.9-7.8c-3.1,0-4.7,0.7-4.2,4.1c0.2,2,0,4,0,6c0,0.9-0.4,1.6-1.4,1.7c-1.4,0.1-1.6-0.9-1.6-1.9c0-7,0-14,0-20.9
			c0-1,0.1-2.1,1.6-2c1.3,0.1,1.4,1.1,1.5,2.2c0,0.7,0.1,1.4,0,2c-1,5.2,1.3,6.1,6.2,6.3c6.1,0.3,6.5-2.5,6-7.1
			c-0.1-1.3-0.7-3.4,1.6-3.4c2.4,0,1.6,2.1,1.6,3.4C179.5,486.5,179.5,489.5,179.5,492.5z"/>
		<path class="st6" d="M307.9,491.5c3.7,1.8,5,4.4,4.2,8c-0.8,3.7-3.7,4.8-7,5.4c-1.3,0.2-2.7,0.1-4,0.3c-3.3,0.4-4.7-0.7-4.4-4.4
			c0.3-6,0.2-12,0.1-18c0-2,0.4-3.2,2.7-3c1.3,0.1,2.7-0.2,4-0.1c3.1,0.1,6.1,0.7,7.5,3.8C312.6,486.9,310.7,489.3,307.9,491.5z
			 M299.8,498c0.9,1.5-1.6,5,2.9,4.6c3.3-0.3,6.6-0.8,6.5-5c-0.1-3.9-3.1-4.5-6.3-4.8C298.2,492.4,300.6,496,299.8,498z M300,486.8
			c0.3,1.3-1.2,4,2.4,3.8c3-0.2,6-0.9,6.1-4.5c0-3-2.4-3.9-5.2-4.1C299.4,481.6,299.9,484.1,300,486.8z"/>
		<path class="st7" d="M132.4,492.3c0-1.8,0.1-3.7,0-5.5c-0.4-4.2-0.1-7.3,5.6-7.2c6.1,0.2,10.1,2.3,10.5,6.8
			c0.4,4.1-2.7,8.3-7.4,8.3c-4.9,0-5.3,2.3-5,6c0.1,1.4,1.1,3.8-1.4,4c-2.9,0.2-2.2-2.3-2.2-4C132.4,497.9,132.4,495.1,132.4,492.3z
			 M136.2,487.4c0.5,1.7-1.5,5.3,3.3,4.9c3.5-0.3,5.8-1.6,5.7-5.4c0-3.7-2.5-4.6-5.6-4.9C135.4,481.6,136.2,484.5,136.2,487.4z"/>
		<path class="st8" d="M470.6,505.2c0,0-1.2,0-2.3-0.4c-1-0.4-3.1-0.4-2.2-2.4c0.7-1.8,2-0.5,2.9-0.2c3.5,0.9,7.1,1.3,8.3-2.9
			c1.1-3.8-2.4-4.9-5.2-6.1c-5.3-2.4-7-5.2-5.5-9c1.5-3.8,6.3-5.7,11-4.3c1.1,0.3,1.9,0.6,1.7,1.9c-0.3,1.4-1.1,1.3-2.2,0.9
			c-1.1-0.4-2.3-0.5-3.4-0.5c-2,0-3.5,1-4.2,3c-0.7,2.2,0.7,3.4,2.3,4.4c1,0.6,2.1,1,3.1,1.5c3.6,1.6,6.7,3.8,5.7,8.2
			C479.8,503.6,476.3,505.5,470.6,505.2z"/>
		<path class="st3" d="M406.6,493.9c0-1.7-0.1-3.3,0-5c0.4-4,0.2-7.4-5.4-6.2c-1.3,0.3-2.4-0.1-2.3-1.7c0.1-1.5,1.4-1.1,2.3-1.1
			c4.5,0,9-0.1,13.5,0c1,0,2.6-0.6,2.6,1.3c0,1.7-1.3,1.7-2.5,1.5c-4.8-1.1-5.4,1.5-5.1,5.4c0.3,4.5,0.1,9,0,13.4
			c0,1.3,0.7,3.5-1.7,3.4c-2.3-0.1-1.3-2.3-1.4-3.5C406.5,498.9,406.6,496.4,406.6,493.9z"/>
		<path class="st9" d="M229.9,493.7c0-1.8-0.1-3.7,0-5.5c0.4-3.8-0.2-6.6-5.1-5.7c-0.9,0.2-2.3,0.1-2.4-1.1
			c-0.2-1.9,1.5-1.4,2.5-1.4c4.1-0.1,8.3-0.1,12.4,0c0.8,0,2.2-0.5,2.3,1c0.2,1.3-0.9,1.7-1.9,1.6c-5.3-0.9-4.9,2.5-4.8,6
			c0.1,4.3,0.1,8.6,0,12.9c0,1.3,0.7,3.4-1.6,3.4c-1.9-0.1-1.3-2-1.3-3.2C229.8,499,229.9,496.3,229.9,493.7z"/>
		<path class="st10" d="M297.3,358.9c-1.6-0.7-1.3-2.1-1.3-3.4c0-16.1,0-32.3,0-48.4c0-1.2-0.1-2.4,1.1-3.1
			C297.8,322.3,297.5,340.6,297.3,358.9z"/>
		<path class="st10" d="M401.1,343.2c0.5-1.1,1.5-1.2,2.5-1.2c11,0,21.9,0,32.9,0c1,0,2,0.1,2.5,1.2
			C426.3,343.2,413.7,343.2,401.1,343.2z"/>
		<path class="st10" d="M219.1,343.2c0.6-1.3,1.8-1.2,3-1.2c10.6,0,21.3,0,31.9,0c1.2,0,2.4-0.1,3,1.2
			C244.3,343.2,231.7,343.2,219.1,343.2z"/>
		<path class="st11" d="M254.6,336.8c-11.4,0-21.9,0-33.2,0c5.5-12.2,10.9-23.9,16.6-36.5C243.7,312.8,249,324.4,254.6,336.8z
			 M232.7,324.6c0.6,3.3,0.5,8.1,5.2,8.1c4.6,0,5.1-4.6,5.1-8.3c0-3.7-0.4-8.3-5.1-8.3C233.2,316,233.1,320.7,232.7,324.6z"/>
		<path class="st12" d="M436.7,336.7c-11.4,0-22,0-33.2,0c5.5-12.1,10.8-23.8,16.5-36.5C425.7,312.7,431,324.4,436.7,336.7z
			 M414.7,323.8c0,5.8,2.5,10.1,5.9,10.2c3.4,0.1,6.3-4.3,6.4-9.9c0.1-5.7-2.8-10.4-6.4-10.4C417.1,313.8,414.7,317.8,414.7,323.8z"
			/>
		<path class="st13" d="M366.9,492.6c0-6.4,3.1-10.6,8.1-10.5c4.7,0,7.9,4.1,8,10.1c0.1,6.1-3.4,10.7-8.1,10.7
			C370.4,502.8,366.9,498.5,366.9,492.6z"/>
		<path class="st13" d="M330,492.2c0.1-5.8,3-9.8,7.5-10.2c4.2-0.3,7.6,2.7,8.4,7.5c1.1,6.5-1.5,11.9-6.2,13.1
			C334.4,503.9,330,499.1,330,492.2z"/>
		<path class="st14" d="M211,492.3c0,5.7-2.9,9.9-7.3,10.5c-3.7,0.5-7.5-2.5-8.6-6.9c-1.5-5.9,1-12.1,5.5-13.6
			C206,480.5,211,485.3,211,492.3z"/>
		<path class="st14" d="M269.4,492.6c-0.1,5.9-2.9,9.8-7.4,10.3c-4,0.4-7.7-3-8.6-8.1c-1-5.4,1.8-11.2,6-12.5
			C264.8,480.6,269.4,485.3,269.4,492.6z"/>
		<path class="st12" d="M299.8,498c0.8-2-1.6-5.6,3.1-5.2c3.2,0.3,6.2,0.9,6.3,4.8c0.1,4.2-3.2,4.8-6.5,5
			C298.2,503,300.7,499.6,299.8,498z"/>
		<path class="st12" d="M300,486.8c-0.1-2.7-0.7-5.2,3.2-4.8c2.8,0.3,5.2,1.2,5.2,4.1c0,3.6-3.1,4.3-6.1,4.5
			C298.8,490.9,300.3,488.1,300,486.8z"/>
		<path class="st14" d="M136.2,487.4c0-2.9-0.8-5.8,3.4-5.4c3.1,0.3,5.6,1.2,5.6,4.9c0,3.8-2.3,5.1-5.7,5.4
			C134.7,492.7,136.6,489.1,136.2,487.4z"/>
		<path class="st9" d="M232.7,324.6c0.4-4,0.5-8.6,5.2-8.6c4.7,0,5.1,4.6,5.1,8.3c0,3.7-0.5,8.3-5.1,8.3
			C233.2,332.7,233.2,328,232.7,324.6z"/>
		<path class="st9" d="M414.7,323.8c0-6,2.4-10,5.9-10.1c3.6,0,6.5,4.7,6.4,10.4c-0.1,5.5-3,10-6.4,9.9
			C417.2,333.9,414.7,329.6,414.7,323.8z"/>
	</g>
</g>
</svg>
