<?xml version="1.0" encoding="utf-8"?>
<!-- Generator: Adobe Illustrator 21.0.1, SVG Export Plug-In . SVG Version: 6.00 Build 0)  -->
<svg version="1.1" xmlns="http://www.w3.org/2000/svg" xmlns:xlink="http://www.w3.org/1999/xlink" x="0px" y="0px"
	 viewBox="0 0 612 792" style="enable-background:new 0 0 612 792;" xml:space="preserve">
<style type="text/css">
	.st0{fill:#FDFDFE;}
	.st1{fill:#7A4FFC;}
	.st2{fill:#272425;}
	.st3{fill:#242021;}
	.st4{fill:#0F0F0F;}
	.st5{fill:#F6F6F8;}
	.st6{display:none;}
</style>
<g id="Layer_1">
	<g>
		<g>
			<path class="st0" d="M131.3,330.5c-24.7,0-49.3,0-74,0c-1,0-1.2-0.2-1.2-1.2c0-28.7,0-57.3,0-86c0-1,0.2-1.2,1.2-1.2
				c49.3,0,98.6,0,147.9,0c1,0,1.2,0.2,1.2,1.2c0,28.7,0,57.3,0,86c0,1-0.2,1.2-1.2,1.2C180.6,330.5,155.9,330.5,131.3,330.5z
				 M104.9,271c3.7,0,7.4,0,11.1,0c0.5,0.8,1.2,1.6,1.5,2.5c0.4,1.1,1.9,2.1,0,3.4c1.8,0,3.4,0,5,0c-0.6-0.5-1.2-1-1.6-1.7
				c-1.4-3-2.7-6-4.3-8.9c-1.4-2.4-2.4-5.1-3.6-7.6c-0.4-0.8-1-1.7,0.5-2.5c-2.1,0-3.8,0-5.6,0c0.9,0.8,0.6,1.5,0.2,2.3
				c-2.2,5.1-5,9.9-7.3,15c-0.6,1.3-1,2.6-2.6,3.5c1.9,0,3.3,0,4.9,0c-0.2-0.6-1.2-0.6-0.8-1.4C103.2,273.9,103.5,272.1,104.9,271z
				 M170.8,271c0.8,1,1.1,2.2,1.7,3.3c0.5,0.9,1,1.8-0.3,2.6c1.9,0,3.5,0,5.6,0c-1.8-0.9-2.5-2.3-3.2-3.6c-1.7-3.7-3.4-7.3-5.1-11
				c-0.2-0.5-0.6-0.9-0.8-1.3c-0.6-1.6-2.4-2.9-1.1-4.8c-1.7,0-3.3,0-5.4,0c1.6,0.7,1.3,1.6,0.7,2.3c-1.7,2.4-2.6,5.2-3.9,7.8
				c-1.8,3.6-3.2,7.5-5.8,10.6c1.5,0,3.1,0,4.8,0c-0.4-0.6-1.3-0.7-0.8-1.5c0.8-1.4,1.2-3,2.2-4.3C163.2,271,167,271,170.8,271z
				 M128.2,259.7c0.2,0,0.4-0.1,0.5,0.2c0.5,1.5,1.6,2.7,2.4,4.2c2.1,3.9,3.7,8,6.1,11.7c0.5,0.8,0.8,0.9,1.2,0
				c2.4-5.3,5.6-10.3,8.1-15.5c0.1-0.2,0.1-0.5,0.5-0.4c0,4.8,0,9.6,0,14.4c0,1,0.1,2-1.3,2.6c1.9,0,3.3,0,4.8,0
				c-1.5-0.7-1.1-2-1.1-3.1c0-5.1,0-10.2,0-15.3c0-0.6-0.2-1.2,0.5-1.6c0.4-0.2,0.5-0.8-0.3-0.8c-1.6,0-3.2,0-4.8,0
				c-0.2,0.1-0.3,0.2-0.5,0.3c1.8,0.5,1.1,1.4,0.7,2.1c-0.9,1.9-2,3.6-3,5.4c-1.5,2.7-2.8,5.5-4.4,8.6c-0.3-1.8-1.4-2.6-2-3.8
				c-1.7-3.4-3.4-6.8-5.2-10.2c-0.5-0.9-1.2-1.6,0.7-2.4c-2.4,0-4.2,0-6,0c1.2,0.7,0.9,1.7,0.9,2.7c0,4.9,0,9.8,0,14.8
				c0,1.2,0.3,2.4-1,3.3c1.5,0,2.8,0,4,0c-0.4-0.5-0.8-0.9-1-1.4C128.3,270.2,128.4,265,128.2,259.7z M169.8,285.5
				c0.3,0.4,0.5,0.7,0.7,1c0.3,0.4,0.7,1,1.3,0.7c0.7-0.3,0.3-1,0.1-1.5c-0.7-1.4-1.3-2.7-2-4.1c-0.4-0.7-1-1.6-1.8-1.2
				c-0.9,0.5-0.3,1.5,0.1,2.1c0.5,0.7,0.4,1.1-0.1,1.7c-1.9,2.2-3.8,4.3-6.1,6.2c-6,4.8-12.8,7.2-20.3,8c-13.1,1.5-23.8-3.4-33-12.3
				c-1.4-1.3-2.6-2.6-1.1-4.5c0.1-0.1,0-0.2,0.1-0.3c0.2-0.5,0.1-0.9-0.3-1.1c-0.5-0.3-0.8,0.1-1,0.4c-0.9,1.5-1.8,3.1-2.7,4.7
				c-0.3,0.5-0.6,1.2,0.1,1.7c0.9,0.5,1.2-0.3,1.5-0.8c0.5-0.9,0.8-0.6,1.3,0c1.5,1.9,3.3,3.7,5.1,5.4c4,3.6,8.5,6.3,13.6,8.2
				c6.3,2.3,12.7,2.7,19.2,1.6c9.1-1.5,16.3-6.5,22.6-13.1C167.8,287.4,168.6,286.4,169.8,285.5z M99.9,264.3
				c-0.6,0.5-1,0.9-1.8,0.9c-2.9,0-5.8,0-8.7,0c-0.8,0-1-0.3-0.9-1c0-1.7,0.1-3.4,0-5.2c0-0.9,0.3-1.1,1.1-1.1c3.5,0,7,0,10.5,0
				c1.6,0,3.3-0.4,4.8,1.1c0-1.2,0-2,0-2.9c0-0.4,0.3-0.9-0.2-1.2c-0.6-0.4-0.6,0.4-0.9,0.6c-0.4,0.4-1,0.3-1.5,0.3
				c-5.5,0-11,0-16.5,0c-0.3,0-0.8-0.3-1,0.4c1.3,0.1,1.2,1,1.2,1.9c0,5.3,0,10.6,0,15.9c0,1,0.2,2.1-1.1,2.6c1.5,0,3,0,4.5,0
				c-0.9-0.5-0.9-1.3-0.9-2.2c0-2,0.1-3.9,0-5.9c-0.1-1.2,0.2-1.7,1.6-1.7c2.4,0.1,4.9,0.1,7.3,0c0.9,0,1.9-0.1,2.6,0.9
				C99.9,266.8,99.9,265.5,99.9,264.3z M174,313.6c0-0.6,0.1-1.2,0-1.7c-0.1-0.6,0.4-1.7-0.4-1.7c-1.1,0-0.5,1.1-0.5,1.7
				c0,0.9-0.2,1.2-1.2,1.2c-2.2,0-2.2,0-2.4-2.1c0-0.4,0.1-0.9-0.6-0.9c-0.7,0-0.6,0.4-0.6,0.8c0,1.7,0,3.4,0,5.2
				c0,0.4-0.3,1.2,0.5,1.2c1,0.1,0.7-0.7,0.7-1.2c0.1-2.2,0.1-2.1,1.7-2.2c1.6-0.2,2,0.5,1.8,1.9c0,0.3,0,0.6,0,0.9
				c0,0.3-0.1,0.7,0.5,0.7c0.5,0,0.5-0.4,0.5-0.7C174,315.6,174,314.6,174,313.6z M137.3,313.8c0,2.2,1.2,3.6,3.2,3.6
				c2.1,0,3.6-1.5,3.6-3.7c0-2.4-1.5-3.5-3.5-3.7C138.6,309.9,137.3,311.5,137.3,313.8z M154.9,313.7c0-2.2-1.3-3.7-3.1-3.7
				c-2.3,0.1-3.6,1.2-3.7,3.6c0,2.3,1.2,3.7,3.4,3.7C153.5,317.4,154.9,316,154.9,313.7z M103.3,313.7c0-2.1-1.3-3.6-3.2-3.7
				c-2.1,0-3.6,1.5-3.6,3.7c0,2.2,1.4,3.7,3.5,3.7C101.9,317.4,103.3,315.8,103.3,313.7z M117.4,317.4c2.2,0,3.5-1.5,3.5-3.8
				c0-2.1-1.4-3.6-3.4-3.6c-2,0-3.4,1.5-3.4,3.7C114.1,315.9,115.4,317.3,117.4,317.4z M128.1,313.7c0,1,0,1.9,0,2.9
				c0,0.4,0,0.8,0.6,0.8c0.9,0,1.8,0.1,2.7-0.2c1.6-0.6,2-2.1,0.8-3.3c-0.2-0.2-0.7-0.3-0.2-0.7c0.7-0.6,0.8-1.4,0.3-2.2
				c-0.5-0.7-2.6-1.2-3.7-0.8c-0.9,0.3-0.3,1-0.4,1.6C128,312.4,128.1,313,128.1,313.7z M93,313.7c0-0.6,0.1-1.2,0-1.7
				c-0.1-0.6,0.5-1.7-0.5-1.7c-0.8,0-0.3,1.1-0.4,1.7c-0.1,0.5,0.2,1.2-0.6,1.2c-1,0-2.1,0.3-2.9-0.2c-0.6-0.3-0.1-1.3-0.2-2
				c0-0.3,0-0.7-0.4-0.7c-0.5,0-0.4,0.4-0.4,0.7c0,1.4-0.1,2.8,0,4.1c0,0.7-0.4,2.1,0.3,2.1c1,0,0.3-1.4,0.5-2.1
				c0.1-0.4-0.2-1.1,0.5-1.1c1,0,2.1-0.3,3,0.1c0.7,0.3,0.2,1.5,0.3,2.2c0,0.1,0,0.3,0,0.4c0,0.3,0.1,0.6,0.5,0.6
				c0.4,0,0.4-0.3,0.4-0.6C93,315.7,93,314.7,93,313.7z M78.7,313.6c0,0.7,0,1.4,0,2.1c0,0.6-0.3,1.5,0.8,1.4c1,0,0.5-0.9,0.5-1.3
				c0-1,0.1-1.5,1.4-1.5c1.3,0,2.2-1,2.2-2.1c0-1.3-1-2.2-2.6-2.2c-2,0-2.2,0.1-2.2,1.9C78.7,312.5,78.7,313.1,78.7,313.6z
				 M180.3,317.4c1.9,0,3-0.6,3.1-1.8c0.1-1.4-0.8-2.1-2.1-2.4c-0.1,0-0.2-0.1-0.3-0.1c-0.6-0.3-1.4-0.6-1.1-1.5
				c0.3-0.9,1-0.8,1.8-0.9c0.4-0.1,1.2,0.8,1.3-0.1c0.1-0.9-0.8-0.4-1.3-0.6c-0.3-0.1-0.7,0-1,0c-0.9,0.1-1.5,0.7-1.7,1.5
				c-0.2,0.9,0.3,1.6,1,2c0.6,0.3,1.2,0.6,1.8,0.8c0.5,0.2,0.7,0.6,0.7,1c0,0.5-0.3,0.9-0.8,1c-0.6,0.1-1.1,0.2-1.7,0.1
				c-0.4,0-1-0.8-1.1,0.1c-0.1,0.6,0.7,0.5,1.1,0.6C180.2,317.4,180.4,317.4,180.3,317.4z M161,314.1c0,0.8,0,1.6,0,2.4
				c0,0.3-0.1,0.7,0.4,0.8c0.6,0.1,0.5-0.4,0.5-0.8c0-1.3,0.1-2.6,0-3.9c-0.1-1.4,0.2-2.1,1.7-1.8c0.3,0.1,0.7,0.1,0.8-0.4
				c0-0.6-0.4-0.4-0.7-0.4c-1.4,0-2.8,0-4.1,0c-0.3,0-0.7-0.2-0.7,0.4c0,0.5,0.4,0.5,0.7,0.4c1.4-0.3,1.6,0.5,1.5,1.6
				C160.9,313,161,313.6,161,314.1z M111.2,310.8c-0.5-0.5-0.8-0.7-1.4-0.7c-1,0-2.1,0-3.1,0c-0.3,0-0.8-0.2-0.8,0.3
				c0,0.6,0.5,0.5,0.9,0.4c1.2-0.2,1.3,0.4,1.3,1.4c-0.1,1.4,0,2.8,0,4.1c0,0.3-0.1,0.9,0.4,0.9c0.6,0,0.4-0.5,0.4-0.9
				c0-1.1,0-2.3,0-3.4C108.9,310.9,108.9,310.9,111.2,310.8z"/>
			<path class="st1" d="M169.8,285.5c-1.1,0.9-1.9,1.9-2.8,2.8c-6.3,6.6-13.5,11.6-22.6,13.1c-6.5,1.1-12.9,0.7-19.2-1.6
				c-5.1-1.9-9.6-4.6-13.6-8.2c-1.9-1.7-3.6-3.4-5.1-5.4c-0.5-0.6-0.8-0.9-1.3,0c-0.3,0.5-0.6,1.3-1.5,0.8c-0.7-0.4-0.4-1.1-0.1-1.7
				c0.8-1.6,1.8-3.1,2.7-4.7c0.2-0.3,0.5-0.8,1-0.4c0.4,0.3,0.5,0.7,0.3,1.1c0,0.1,0,0.2-0.1,0.3c-1.5,2-0.3,3.2,1.1,4.5
				c9.2,8.8,19.9,13.7,33,12.3c7.5-0.8,14.3-3.2,20.3-8c2.3-1.8,4.2-4,6.1-6.2c0.5-0.6,0.6-1,0.1-1.7c-0.5-0.6-1-1.6-0.1-2.1
				c0.8-0.4,1.4,0.4,1.8,1.2c0.7,1.4,1.4,2.7,2,4.1c0.2,0.5,0.6,1.2-0.1,1.5c-0.6,0.3-0.9-0.3-1.3-0.7
				C170.2,286.2,170,285.9,169.8,285.5z"/>
			<path class="st2" d="M128.2,275.4c0.2,0.5,0.6,0.9,1,1.4c-1.3,0-2.6,0-4,0c1.2-0.9,0.9-2.1,1-3.3c0-4.9,0-9.8,0-14.8
				c0-1,0.3-2-0.9-2.7c1.8,0,3.7,0,6,0c-1.8,0.8-1.1,1.5-0.7,2.4c1.8,3.4,3.5,6.8,5.2,10.2c0.6,1.2,1.7,2,2,3.8
				c1.6-3.1,2.9-5.9,4.4-8.6c1-1.8,2.1-3.6,3-5.4c0.4-0.8,1-1.6-0.7-2.1c0.2-0.1,0.3-0.2,0.5-0.3c1.6,0,3.2,0,4.8,0
				c0.8,0,0.6,0.6,0.3,0.8c-0.7,0.4-0.5,1-0.5,1.6c0,5.1,0,10.2,0,15.3c0,1.1-0.3,2.4,1.1,3.1c-1.5,0-2.9,0-4.8,0
				c1.4-0.6,1.3-1.6,1.3-2.6c0-4.8,0-9.6,0-14.4c-0.5-0.1-0.4,0.2-0.5,0.4c-2.5,5.3-5.7,10.2-8.1,15.5c-0.4,0.9-0.7,0.8-1.2,0
				c-2.5-3.7-4-7.8-6.1-11.7c-0.8-1.4-1.8-2.6-2.4-4.2c-0.1-0.3-0.3-0.1-0.5-0.2c-0.4,0.2-0.3,0.5-0.3,0.9c0,4.6,0,9.3,0,13.9
				C127.8,274.8,127.8,275.3,128.2,275.4z"/>
			<path class="st3" d="M159.4,271c-0.9,1.3-1.4,2.9-2.2,4.3c-0.5,0.9,0.4,1,0.8,1.5c-1.7,0-3.3,0-4.8,0c2.6-3.1,4-6.9,5.8-10.6
				c1.3-2.6,2.2-5.4,3.9-7.8c0.5-0.8,0.9-1.6-0.7-2.3c2.1,0,3.8,0,5.4,0c-1.3,2,0.6,3.3,1.1,4.8c0.1,0.4,0.6,0.8,0.8,1.3
				c1.7,3.7,3.4,7.3,5.1,11c0.6,1.4,1.4,2.7,3.2,3.6c-2.1,0-3.8,0-5.6,0c1.3-0.8,0.8-1.7,0.3-2.6c-0.6-1.1-0.9-2.3-1.7-3.3
				c-0.2-0.4-0.5-0.4-0.9-0.4c-3.2,0-6.5,0-9.7,0C159.9,270.6,159.6,270.6,159.4,271z M165.1,258.6c-1.3,3.6-3.3,6.5-4.7,9.7
				c-0.2,0.6-0.3,0.8,0.5,0.8c2.8,0,5.6,0,8.4,0c0.7,0,0.8-0.2,0.5-0.8c-0.9-1.9-2.1-3.7-2.9-5.6
				C166.4,261.4,165.8,260.1,165.1,258.6z"/>
			<path class="st3" d="M104.9,271c-1.4,1.2-1.7,3-2.5,4.5c-0.4,0.8,0.6,0.8,0.8,1.4c-1.5,0-3,0-4.9,0c1.7-0.9,2.1-2.2,2.6-3.5
				c2.2-5.1,5.1-9.9,7.3-15c0.4-0.8,0.7-1.6-0.2-2.3c1.8,0,3.5,0,5.6,0c-1.5,0.8-0.9,1.7-0.5,2.5c1.2,2.5,2.2,5.2,3.6,7.6
				c1.6,2.9,2.9,5.9,4.3,8.9c0.4,0.8,0.9,1.2,1.6,1.7c-1.6,0-3.1,0-5,0c1.9-1.3,0.4-2.4,0-3.4c-0.3-0.9-1-1.7-1.5-2.5
				c-0.2-0.4-0.5-0.4-0.8-0.4c-3.1,0-6.3,0-9.4,0C105.5,270.6,105.1,270.6,104.9,271z M110.3,258.7c-1.5,3.3-3,6.5-4.4,9.6
				c-0.2,0.4-0.5,0.8,0.3,0.8c2.8,0,5.6,0,8.5,0c0.4,0,0.7-0.1,0.5-0.6C113.5,265.4,112.4,261.9,110.3,258.7z"/>
			<path class="st2" d="M99.9,264.3c0,1.2,0,2.5,0,3.7c-0.7-1-1.6-0.9-2.6-0.9c-2.4,0-4.9,0.1-7.3,0c-1.4-0.1-1.6,0.4-1.6,1.7
				c0.1,2,0.1,3.9,0,5.9c0,0.8,0,1.6,0.9,2.2c-1.5,0-3,0-4.5,0c1.4-0.4,1.1-1.5,1.1-2.6c0-5.3,0-10.6,0-15.9c0-1,0-1.8-1.2-1.9
				c0.2-0.7,0.7-0.4,1-0.4c5.5,0,11,0,16.5,0c0.5,0,1,0.1,1.5-0.3c0.3-0.3,0.3-1,0.9-0.6c0.4,0.3,0.2,0.8,0.2,1.2c0,0.8,0,1.7,0,2.9
				c-1.5-1.6-3.2-1.1-4.8-1.1c-3.5,0-7,0-10.5,0c-0.8,0-1.2,0.2-1.1,1.1c0.1,1.7,0.1,3.4,0,5.2c0,0.7,0.2,1,0.9,1c2.9,0,5.8,0,8.7,0
				C98.9,265.2,99.3,264.8,99.9,264.3z"/>
			<path class="st3" d="M174,313.6c0,1,0,2,0,3c0,0.3,0.1,0.7-0.5,0.7c-0.5,0-0.5-0.4-0.5-0.7c0-0.3,0-0.6,0-0.9
				c0.2-1.4-0.2-2-1.8-1.9c-1.7,0.2-1.6,0-1.7,2.2c0,0.5,0.3,1.3-0.7,1.2c-0.9-0.1-0.5-0.8-0.5-1.2c0-1.7,0-3.4,0-5.2
				c0-0.5,0-0.9,0.6-0.8c0.7,0,0.6,0.4,0.6,0.9c0.1,2.2,0.1,2.1,2.4,2.1c1,0,1.1-0.4,1.2-1.2c0-0.6-0.6-1.7,0.5-1.7
				c0.8,0,0.3,1.1,0.4,1.7C174.1,312.4,174,313,174,313.6z"/>
			<path class="st4" d="M137.3,313.8c0-2.3,1.4-3.9,3.3-3.8c2,0.1,3.5,1.3,3.5,3.7c0,2.2-1.5,3.7-3.6,3.7
				C138.5,317.4,137.3,316,137.3,313.8z M142.8,313.7c0-2.1-1.4-3.4-2.9-2.8c-1.2,0.4-2,2.1-1.6,3.8c0.3,1.3,1.4,2.2,2.5,2.1
				C142,316.5,142.8,315.3,142.8,313.7z"/>
			<path class="st4" d="M154.9,313.7c0,2.3-1.3,3.7-3.4,3.7c-2.2,0-3.4-1.4-3.4-3.7c0-2.4,1.4-3.5,3.7-3.6
				C153.6,309.9,154.9,311.5,154.9,313.7z M153.9,313.7c0-1.8-0.9-3-2.3-3c-1.4,0-2.6,1.4-2.6,3c0,1.5,1.3,3,2.6,3
				C152.9,316.7,153.9,315.4,153.9,313.7z"/>
			<path class="st1" d="M103.3,313.7c0,2.1-1.4,3.7-3.3,3.7c-2.1,0-3.5-1.4-3.5-3.7c0-2.2,1.5-3.8,3.6-3.7
				C102,310,103.3,311.6,103.3,313.7z M97.4,313.7c0,1.5,1.3,3,2.6,3c1.3,0,2.3-1.3,2.3-2.9c0-1.8-1-3-2.3-3
				C98.6,310.7,97.4,312.2,97.4,313.7z"/>
			<path class="st1" d="M117.4,317.4c-2,0-3.3-1.4-3.3-3.6c0-2.2,1.4-3.7,3.4-3.7c2,0,3.4,1.5,3.4,3.6
				C120.9,315.9,119.5,317.4,117.4,317.4z M119.9,313.6c0-1.8-0.9-2.9-2.4-2.9c-1.5,0-2.5,1.2-2.5,3c0,1.7,1,2.9,2.5,2.9
				C119,316.7,119.9,315.5,119.9,313.6z"/>
			<path class="st4" d="M128.1,313.7c0-0.7-0.1-1.3,0-2c0.1-0.5-0.5-1.3,0.4-1.6c1.2-0.4,3.3,0,3.7,0.8c0.5,0.8,0.4,1.6-0.3,2.2
				c-0.6,0.5-0.1,0.5,0.2,0.7c1.2,1.2,0.9,2.8-0.8,3.3c-0.9,0.3-1.8,0.2-2.7,0.2c-0.6,0-0.6-0.4-0.6-0.8
				C128.1,315.6,128.1,314.7,128.1,313.7z M129.8,313.8c-0.7-0.2-1.1,0.2-0.8,1c0.2,0.6-0.7,1.9,0.9,1.8c1,0,2-0.1,2-1.4
				C131.9,314,130.9,313.9,129.8,313.8z M129,311.7c0.1,0.8-0.3,1.6,0.9,1.5c0.9-0.1,1.9-0.2,1.8-1.3c0-0.9-0.8-1.1-1.7-1.2
				C129.1,310.7,128.8,311.1,129,311.7z"/>
			<path class="st1" d="M93,313.7c0,1,0,2,0,3c0,0.3,0,0.6-0.4,0.6c-0.4,0-0.5-0.3-0.5-0.6c0-0.1,0-0.3,0-0.4
				c-0.1-0.8,0.4-1.9-0.3-2.2c-0.8-0.4-2-0.2-3-0.1c-0.8,0-0.4,0.7-0.5,1.1c-0.2,0.7,0.5,2.1-0.5,2.1c-0.8,0-0.3-1.4-0.3-2.1
				c-0.1-1.4,0-2.8,0-4.1c0-0.3-0.1-0.7,0.4-0.7c0.5,0,0.4,0.4,0.4,0.7c0.1,0.7-0.4,1.7,0.2,2c0.8,0.5,1.9,0.2,2.9,0.2
				c0.9,0,0.5-0.7,0.6-1.2c0.1-0.6-0.4-1.7,0.4-1.7c1,0,0.4,1.1,0.5,1.7C93.1,312.5,93,313.1,93,313.7z"/>
			<path class="st1" d="M78.7,313.6c0-0.6,0-1.1,0-1.7c0-1.7,0.2-1.9,2.2-1.9c1.6,0,2.7,0.9,2.6,2.2c0,1.1-0.9,2.2-2.2,2.1
				c-1.2,0-1.4,0.5-1.4,1.5c0,0.4,0.5,1.3-0.5,1.3c-1.1,0.1-0.8-0.8-0.8-1.4C78.7,315.1,78.7,314.4,78.7,313.6z M80,312.2
				c0.1,0.6-0.4,1.5,0.9,1.5c1,0,1.8-0.4,1.7-1.6c0-1.1-0.8-1.3-1.8-1.4C79.6,310.7,80.1,311.7,80,312.2z"/>
			<path class="st4" d="M180.3,317.4c0,0-0.2,0-0.3,0c-0.4-0.1-1.2-0.1-1.1-0.6c0.1-0.9,0.7-0.2,1.1-0.1c0.6,0.1,1.1,0,1.7-0.1
				c0.5-0.1,0.8-0.5,0.8-1c0-0.4-0.2-0.8-0.7-1c-0.6-0.2-1.2-0.5-1.8-0.8c-0.8-0.4-1.2-1.1-1-2c0.2-0.9,0.7-1.4,1.7-1.5
				c0.3,0,0.7-0.1,1,0c0.5,0.1,1.4-0.3,1.3,0.6c-0.1,0.9-0.8,0-1.3,0.1c-0.7,0.1-1.5,0-1.8,0.9c-0.3,0.9,0.5,1.2,1.1,1.5
				c0.1,0,0.2,0.1,0.3,0.1c1.3,0.3,2.2,0.9,2.1,2.4C183.3,316.8,182.2,317.4,180.3,317.4z"/>
			<path class="st3" d="M161,314.1c0-0.5,0-1.1,0-1.6c0.1-1.1,0-1.9-1.5-1.6c-0.3,0.1-0.7,0.1-0.7-0.4c0-0.6,0.4-0.4,0.7-0.4
				c1.4,0,2.8,0,4.1,0c0.3,0,0.7-0.1,0.7,0.4c0,0.5-0.5,0.4-0.8,0.4c-1.5-0.3-1.8,0.4-1.7,1.8c0.1,1.3,0,2.6,0,3.9
				c0,0.4,0,0.8-0.5,0.8c-0.5-0.1-0.4-0.5-0.4-0.8C161,315.7,161,314.9,161,314.1z"/>
			<path class="st1" d="M111.2,310.8c-2.3,0.1-2.3,0.1-2.3,2.1c0,1.1,0,2.3,0,3.4c0,0.4,0.1,0.9-0.4,0.9c-0.6,0-0.4-0.5-0.4-0.9
				c0-1.4-0.1-2.8,0-4.1c0-1-0.1-1.6-1.3-1.4c-0.3,0-0.9,0.2-0.9-0.4c0-0.5,0.5-0.3,0.8-0.3c1,0,2.1,0,3.1,0
				C110.4,310.1,110.7,310.4,111.2,310.8z"/>
			<path class="st4" d="M128.2,275.4c-0.5-0.2-0.4-0.6-0.4-1c0-4.6,0-9.3,0-13.9c0-0.3,0-0.7,0.3-0.9
				C128.4,265,128.3,270.2,128.2,275.4z"/>
			<path class="st4" d="M159.4,271c0.2-0.4,0.5-0.4,0.8-0.4c3.2,0,6.5,0,9.7,0c0.3,0,0.7,0,0.9,0.4C167,271,163.2,271,159.4,271z"/>
			<path class="st4" d="M104.9,271c0.2-0.4,0.5-0.4,0.9-0.4c3.1,0,6.3,0,9.4,0c0.3,0,0.7,0,0.8,0.4C112.4,271,108.6,271,104.9,271z"
				/>
			<path class="st5" d="M165.1,258.6c0.7,1.6,1.3,2.8,1.9,4.1c0.8,2,1.9,3.8,2.9,5.6c0.3,0.6,0.2,0.8-0.5,0.8c-2.8,0-5.6,0-8.4,0
				c-0.8,0-0.7-0.2-0.5-0.8C161.7,265.1,163.8,262.1,165.1,258.6z M163.6,265.4c0,1.7,0.7,2.9,1.7,2.9c1,0,1.8-1.2,1.8-2.8
				c0-1.6-0.8-3-1.8-3C164.3,262.5,163.6,263.6,163.6,265.4z"/>
			<path class="st5" d="M110.3,258.7c2.1,3.2,3.2,6.7,4.8,9.9c0.2,0.5,0,0.6-0.5,0.6c-2.8,0-5.6,0-8.5,0c-0.8,0-0.5-0.5-0.3-0.8
				C107.4,265.2,108.8,262,110.3,258.7z M108.9,265.4c0,1.6,0.6,2.6,1.6,2.6c1,0,1.7-1.1,1.7-2.6c0-0.6-0.1-1.1-0.5-1.6
				c-0.6-0.9-1.7-1-2.4,0C109,264.3,108.8,264.9,108.9,265.4z"/>
			<path class="st5" d="M142.8,313.7c0,1.7-0.8,2.8-2,3c-1.1,0.1-2.2-0.8-2.5-2.1c-0.4-1.7,0.4-3.3,1.6-3.8
				C141.4,310.3,142.8,311.6,142.8,313.7z"/>
			<path class="st5" d="M153.9,313.7c0,1.7-1,2.9-2.3,2.9c-1.3,0-2.6-1.5-2.6-3c0-1.6,1.2-3,2.6-3
				C153,310.7,153.9,311.9,153.9,313.7z"/>
			<path class="st0" d="M97.4,313.7c0-1.6,1.2-3,2.6-3c1.4,0,2.4,1.3,2.3,3c0,1.7-1,2.9-2.3,2.9C98.7,316.7,97.4,315.2,97.4,313.7z"
				/>
			<path class="st0" d="M119.9,313.6c0,1.9-0.9,3.1-2.4,3.1c-1.4,0-2.5-1.2-2.5-2.9c0-1.8,1-3,2.5-3
				C119,310.7,119.9,311.8,119.9,313.6z"/>
			<path class="st5" d="M129.8,313.8c1.1,0.1,2.1,0.2,2.1,1.4c0,1.3-1,1.4-2,1.4c-1.6,0-0.7-1.2-0.9-1.8
				C128.8,314,129.2,313.6,129.8,313.8z"/>
			<path class="st5" d="M129,311.7c-0.1-0.6,0.1-1,1.1-1c0.8,0.1,1.6,0.2,1.7,1.2c0,1.1-0.9,1.2-1.8,1.3
				C128.7,313.3,129,312.5,129,311.7z"/>
			<path class="st5" d="M80,312.2c0.1-0.6-0.4-1.5,0.9-1.5c0.9,0,1.7,0.3,1.8,1.4c0,1.2-0.7,1.5-1.7,1.6
				C79.6,313.8,80.1,312.8,80,312.2z"/>
			<path class="st1" d="M163.6,265.4c0-1.7,0.7-2.9,1.7-2.9c1,0,1.9,1.4,1.8,3c0,1.6-0.9,2.9-1.8,2.8
				C164.3,268.3,163.6,267,163.6,265.4z"/>
			<path class="st1" d="M108.9,265.4c0-0.5,0.1-1.1,0.4-1.7c0.6-0.9,1.8-0.9,2.4,0c0.3,0.5,0.4,1,0.5,1.6c0,1.5-0.7,2.6-1.7,2.6
				C109.5,268,108.9,267,108.9,265.4z"/>
		</g>
	</g>
</g>
<g id="Layer_2" class="st6">
</g>
</svg>
